<?xml version="1.0" encoding="UTF-8"?>
<!DOCTYPE svg PUBLIC "-//W3C//DTD SVG 1.1//EN" "http://www.w3.org/Graphics/SVG/1.1/DTD/svg11.dtd">
<!-- Creator: CorelDRAW -->
<svg xmlns="http://www.w3.org/2000/svg" xml:space="preserve" width="5cm" height="5cm" shape-rendering="geometricPrecision" text-rendering="geometricPrecision" image-rendering="optimizeQuality" fill-rule="evenodd" clip-rule="evenodd"
viewBox="0 0 500 500"
 xmlns:xlink="http://www.w3.org/1999/xlink">
 <g id="Ebene_x0020_1">
  <metadata id="CorelCorpID_0Corel-Layer"/>
  <rect fill="#660033" width="500" height="500"/>
  <path fill="white" d="M419.699 449.994l19.436 0 0 -73.557 -347.862 0 0.035 -85.405 -28.095 0 0 158.968 18.773 -0.006c4.195,-10.553 7.878,-25.274 9.322,-35.895l319.239 0c1.929,12.629 5.243,24.659 9.152,35.895zm-311.464 -88.174l73.793 0c0,-34.225 -13.632,-51.605 -49.377,-51.605l-24.482 0 0.066 51.605zm330.372 -0.309c0,-34.225 -13.104,-51.296 -48.849,-51.296l-142.304 0c-35.745,0 -49.905,17.071 -49.905,51.296l241.058 0z"/>
 </g>
</svg>
