<?xml version="1.0" encoding="UTF-8"?>
<!DOCTYPE svg PUBLIC "-//W3C//DTD SVG 1.1//EN" "http://www.w3.org/Graphics/SVG/1.1/DTD/svg11.dtd">
<!-- Creator: CorelDRAW -->
<svg xmlns="http://www.w3.org/2000/svg" xml:space="preserve" width="5cm" height="5cm" shape-rendering="geometricPrecision" text-rendering="geometricPrecision" image-rendering="optimizeQuality" fill-rule="evenodd" clip-rule="evenodd"
viewBox="0 0 500 500"
 xmlns:xlink="http://www.w3.org/1999/xlink">
 <g id="Ebene_x0020_1">
  <metadata id="CorelCorpID_0Corel-Layer"/>
  <rect fill="#660033" width="500" height="500"/>
 </g>
 <g id="Ebene_x0020_2">
  <metadata id="CorelCorpID_1Corel-Layer"/>
  <path fill="white" d="M113.2 268.62l0 -162.26 273.6 0 0 162.26 -273.6 0zm-26.343 116.829c0,8.865 5.96,15.866 15.867,15.866l12.475 0c-0.063,0.42 -0.096,0.849 -0.096,1.286l0 38.756c0,4.754 3.89,8.643 8.644,8.643l35.113 0c4.754,0 8.643,-3.889 8.643,-8.643l0 -38.756c0,-0.436 -0.033,-0.865 -0.096,-1.285l165.186 0c-0.063,0.42 -0.096,0.849 -0.096,1.285l0 38.756c0,4.754 3.889,8.643 8.643,8.643l35.113 0c4.754,0 8.644,-3.889 8.644,-8.643l0 -38.756c0,-0.437 -0.033,-0.866 -0.096,-1.286l12.475 0c9.907,0 15.867,-7.001 15.867,-15.866l0 -22.969 0 -296.597c0,-8.864 -5.96,-15.866 -15.867,-15.866l-294.552 0c-9.907,0 -15.867,7.002 -15.867,15.866l0 319.566zm298.864 -9.669l-69.191 0 0 -18.587c0,-10.224 8.422,-18.588 18.716,-18.588l50.475 0 0 37.175zm-202.251 0l-69.191 0 0 -37.175 50.475 0c10.294,0 18.716,8.364 18.716,18.588l0 18.587z"/>
 </g>
</svg>
